<svg xmlns="http://www.w3.org/2000/svg" viewBox="0 0 216.54 698.5"><defs><style>.cls-1{fill:#b5b5f7;stroke:#b5b5f7;}.cls-1,.cls-3,.cls-4{stroke-miterlimit:10;}.cls-2,.cls-3{fill:none;}.cls-3{stroke:#000;}.cls-4{fill:#dedefc;stroke:#dedefc;}</style></defs><title>Bottle</title><g id="Layer_2" data-name="Layer 2"><path class="cls-1" d="M466.5,37.5h49a14.93,14.93,0,0,1,6,26,18.81,18.81,0,0,1,4,4.88c6.63,11.65-2,26.46-3,28.12a326.38,326.38,0,0,1,25.85,76.69A328.71,328.71,0,0,1,550.5,291.5a202.55,202.55,0,0,1,19.55,18.21A204.82,204.82,0,0,1,602.5,355.5v363a339.19,339.19,0,0,1-57.44,13.24c-65.63,9.19-121-2.82-156.56-14.24Q387.74,536,387,354.4s7.54-24.9,46.54-60.9c0,0-33-98,29-197,0,0-11-20,1-33C463.5,63.5,446.5,50.5,466.5,37.5Z" transform="translate(-386.46 -37)"/></g><g id="Layer_3" data-name="Layer 3"><line class="cls-2" x1="77.04" y1="26.5" x2="135.04" y2="26.5"/><path class="cls-3" d="M463.5,96.5" transform="translate(-386.46 -37)"/><path class="cls-3" d="M943.5,322.5" transform="translate(-386.46 -37)"/><path class="cls-3" d="M821.5,322.5" transform="translate(-386.46 -37)"/><path class="cls-3" d="M394.5,353.5" transform="translate(-386.46 -37)"/><path class="cls-4" d="M492.5,47.5c-12.09-1.41-15.79.81-17,3-1.66,3,1.61,5.57,2,13,.3,5.76-2.09,6.94-3,17a28.42,28.42,0,0,0,0,7c0,.11,0,.18.05.31a72.12,72.12,0,0,0,1.95,8.69l-.06.52.06-.52a429.57,429.57,0,0,0-15,146c1,14.46,2.78,28.15,5,41v1c-28.49,30-34.78,55.94-35,74,0,.67,0,1.34,0,2q.5,163,1,326a144.66,144.66,0,0,0,29,15,116.09,116.09,0,0,0,25,7,218.6,218.6,0,0,0,27,2,140.94,140.94,0,0,1-57,3,136.83,136.83,0,0,1-24-6,17.06,17.06,0,0,1-8-5c-4.71-5.47-4.11-13-4-15,.64-11.88.41-144.49,0-328a140.23,140.23,0,0,1,8-31,142,142,0,0,1,28-45c-.21-1-.58-2.79-1-5-2.15-11.25-11.95-65.85,4-145,1.75-8.68,4.59-21.52,9-37a29.65,29.65,0,0,1-3-15c.71-8.88,5.54-11.23,5-19-.56-8-6.1-11.44-4-15,1.68-2.85,6.55-2.93,11-3A36.58,36.58,0,0,1,492.5,47.5Z" transform="translate(-386.46 -37)"/></g></svg>